<?xml version="1.0" standalone="no"?>
<!DOCTYPE svg PUBLIC "-//W3C//DTD SVG 20010904//EN"
 "http://www.w3.org/TR/2001/REC-SVG-20010904/DTD/svg10.dtd">
<svg version="1.0" xmlns="http://www.w3.org/2000/svg"
 width="512.000000pt" height="512.000000pt" viewBox="0 0 512.000000 512.000000"
 preserveAspectRatio="xMidYMid meet">

<g transform="translate(0.000000,512.000000) scale(0.100000,-0.100000)"
fill="#000000" stroke="none">
<path d="M2509 5107 c-20 -8 -50 -23 -67 -35 -34 -25 -82 -113 -82 -151 0 -26
-1 -26 -78 -26 -70 0 -84 -3 -127 -30 -31 -19 -61 -49 -80 -79 -27 -45 -30
-58 -33 -156 l-4 -108 -57 5 c-104 10 -211 -59 -239 -156 -8 -25 -12 -141 -12
-345 0 -293 1 -307 20 -326 30 -30 83 -27 109 6 20 26 21 38 21 326 l0 299 25
24 c32 33 78 33 110 0 l25 -24 0 -281 c0 -331 2 -340 82 -340 70 0 68 -13 68
508 0 333 3 469 12 485 26 50 77 61 121 27 l26 -21 3 -400 3 -401 24 -19 c29
-24 72 -24 100 -1 21 17 21 23 23 525 l3 509 28 24 c38 32 72 31 108 -5 l29
-29 0 -501 c0 -488 1 -502 20 -521 30 -30 83 -27 109 6 20 26 21 37 21 416 l0
389 25 24 c32 33 78 33 110 0 l25 -24 0 -569 0 -570 -45 -6 c-69 -11 -176 -69
-229 -126 -60 -64 -106 -162 -113 -239 -7 -79 1 -106 35 -120 63 -26 112 18
112 102 0 18 12 57 26 85 45 91 126 135 284 156 55 7 105 17 109 22 5 5 57
122 116 259 59 138 118 261 131 274 31 33 81 31 112 -4 12 -14 22 -36 22 -47
0 -18 -317 -742 -387 -883 -33 -67 -96 -131 -164 -165 -31 -16 -59 -36 -63
-45 -3 -9 -6 -639 -6 -1400 l0 -1384 26 -20 c43 -34 86 -26 109 20 13 24 15
211 15 1361 l0 1333 60 44 c96 70 129 123 266 427 300 666 297 660 291 725
-16 178 -194 267 -351 175 -54 -32 -76 -66 -148 -236 l-53 -124 -5 494 c-4
350 -8 503 -17 521 -39 88 -138 145 -235 136 -57 -5 -58 -4 -63 21 -12 61 -61
137 -107 165 -55 34 -143 45 -199 24z"/>
<path d="M4175 3700 c-104 -16 -195 -118 -195 -220 0 -22 54 -330 76 -432 5
-27 4 -28 -33 -28 -81 0 -182 -76 -207 -155 -5 -18 -15 -20 -90 -20 -78 0 -88
-2 -127 -30 -51 -36 -85 -83 -100 -137 -7 -26 -9 -203 -7 -521 4 -469 4 -484
26 -541 12 -33 36 -81 53 -107 34 -54 138 -154 169 -164 19 -6 20 -16 22 -656
l3 -651 24 -19 c30 -25 62 -24 95 2 l26 20 0 680 c0 417 -4 687 -10 698 -5 10
-34 30 -64 45 -66 32 -129 99 -164 174 -27 57 -27 58 -30 333 l-3 276 73 -1
c61 0 81 4 121 26 l47 27 43 -24 c23 -12 58 -26 79 -29 45 -8 122 9 159 34
l27 20 53 -27 c51 -27 60 -28 226 -31 l173 -4 0 -46 c0 -47 0 -47 -55 -76
-121 -63 -219 -206 -231 -337 -7 -75 3 -105 43 -120 54 -20 103 23 103 91 0
16 9 53 20 82 27 73 89 132 176 167 45 18 73 36 82 52 9 17 12 65 10 162 -4
188 11 177 -250 177 -244 0 -268 8 -268 89 0 17 10 37 26 52 l26 24 290 0 290
0 24 -29 25 -28 -3 -407 -3 -406 -28 -56 c-32 -66 -104 -137 -174 -173 -28
-14 -53 -32 -57 -41 -3 -9 -6 -115 -6 -236 l0 -220 25 -24 c13 -14 36 -25 50
-25 14 0 37 11 50 25 25 24 25 26 25 209 l0 186 42 26 c62 39 129 113 165 181
60 112 63 136 63 573 0 247 -4 409 -11 433 -14 51 -73 115 -129 141 l-46 21
103 360 c56 198 102 376 102 396 2 83 -52 169 -131 210 -77 39 -197 18 -261
-47 -43 -43 -51 -62 -123 -315 -36 -129 -69 -240 -73 -246 -4 -7 -26 94 -49
225 -48 268 -69 325 -137 373 -45 33 -111 48 -170 39z m93 -172 c17 -19 33
-92 91 -406 39 -210 71 -389 71 -397 0 -11 -11 -15 -37 -15 -21 -1 -57 -4 -79
-9 l-42 -8 -4 81 c-3 46 -11 94 -20 111 -14 26 -118 555 -118 597 0 9 9 27 21
42 27 35 86 36 117 4z m681 -14 c12 -15 21 -35 21 -46 0 -14 -146 -538 -206
-740 -5 -15 -18 -18 -91 -18 -67 0 -84 3 -80 13 3 8 53 185 112 393 73 260
114 386 128 402 30 32 89 31 116 -4z m-858 -663 c23 -19 24 -23 27 -209 3
-188 3 -190 -21 -218 -32 -37 -90 -39 -118 -5 -17 21 -19 43 -19 217 0 181 1
195 20 214 26 26 80 26 111 1z m-321 -161 c26 -14 40 -63 40 -144 0 -118 -48
-177 -117 -144 -44 21 -54 52 -51 161 3 90 5 101 27 118 25 21 71 25 101 9z"/>
<path d="M1755 3425 c-24 -23 -25 -29 -25 -167 0 -155 11 -214 55 -304 33 -67
102 -144 166 -185 l49 -32 0 -1344 0 -1344 25 -24 c13 -14 36 -25 50 -25 14 0
37 11 50 25 l25 24 0 1378 c0 1538 7 1403 -73 1442 -72 35 -124 86 -159 159
-32 65 -33 71 -38 225 -5 152 -6 160 -29 178 -32 26 -67 24 -96 -6z"/>
<path d="M454 2606 c-49 -22 -101 -73 -120 -119 l-17 -43 -64 4 c-85 6 -141
-16 -193 -75 -22 -25 -44 -62 -50 -82 -6 -22 -10 -222 -10 -506 0 -519 1 -534
63 -648 36 -68 103 -142 165 -181 l42 -26 0 -441 0 -440 25 -24 c31 -32 69
-32 100 0 l25 24 0 475 c0 261 -3 482 -6 491 -4 9 -29 27 -57 41 -70 36 -142
107 -174 173 l-28 56 -3 287 -3 287 36 -10 c47 -13 103 -4 160 26 l44 24 47
-26 c66 -37 151 -37 217 -1 l47 27 48 -27 c45 -26 54 -27 220 -30 l172 -4 0
-47 0 -48 -67 -40 c-124 -73 -201 -196 -210 -338 -6 -77 5 -97 59 -110 22 -6
33 -1 58 23 24 25 30 39 30 75 0 105 94 220 207 253 30 9 57 24 63 34 16 30
13 302 -4 326 -13 18 -31 19 -236 24 -218 5 -222 5 -241 29 -25 30 -25 85 0
110 30 30 64 33 348 29 258 -3 263 -3 285 -26 l23 -23 0 -407 0 -407 -27 -57
c-35 -75 -98 -142 -164 -174 -30 -15 -59 -35 -64 -45 -6 -11 -10 -209 -10
-498 l0 -480 26 -20 c33 -26 65 -27 95 -2 l24 19 3 451 c3 439 3 450 23 456
30 10 134 110 168 164 17 26 41 74 53 107 22 58 23 69 23 489 0 424 0 431 -22
471 -30 56 -85 102 -139 116 l-44 12 0 61 c0 83 -15 130 -58 177 -49 54 -102
78 -177 78 -46 0 -70 -6 -104 -25 l-44 -25 -50 25 c-70 34 -156 35 -221 0
l-46 -24 -46 24 c-54 29 -147 34 -200 11z m136 -146 c31 -17 40 -67 40 -229 0
-129 -3 -162 -18 -190 -21 -43 -60 -58 -99 -39 -49 23 -54 46 -51 246 3 180 4
184 27 203 25 21 71 25 101 9z m321 -9 c18 -14 23 -31 27 -80 l4 -61 -38 0
c-22 -1 -58 -5 -81 -9 l-43 -8 0 68 c0 56 4 73 20 89 25 25 80 26 111 1z m318
-7 c15 -20 21 -41 21 -80 l0 -54 -80 0 -80 0 0 57 c0 72 24 103 81 103 29 0
42 -6 58 -26z m-942 -166 c21 -20 23 -30 23 -124 0 -119 -3 -130 -41 -149 -40
-21 -57 -19 -90 14 -28 29 -29 32 -29 129 0 85 3 103 21 126 27 34 82 36 116
4z"/>
<path d="M4701 644 c-20 -26 -21 -39 -21 -311 l0 -284 25 -24 c13 -14 36 -25
50 -25 14 0 37 11 50 25 l25 24 0 284 c0 272 -1 285 -21 311 -15 19 -30 26
-54 26 -24 0 -39 -7 -54 -26z"/>
</g>
</svg>
